/* XPM */
static char *cdcb565daaca407f9093171eebcc72d4[] = {
/* columns rows colors chars-per-pixel */
"64 64 150 2 ",
"   c #4F5151",
".  c #505252",
"X  c #515252",
"o  c #575959",
"O  c #575B5B",
"+  c #585959",
"@  c #595A5A",
"#  c #595B5B",
"$  c #5F6262",
"%  c #5F6363",
"&  c #606161",
"*  c #606262",
"=  c #616262",
"-  c #606363",
";  c #676A6A",
":  c #686A6A",
">  c #696A6A",
",  c #686B6B",
"<  c #707171",
"1  c #707272",
"2  c #717272",
"3  c #707373",
"4  c #777A7A",
"5  c #787979",
"6  c #787A7A",
"7  c #797A7A",
"8  c #787B7B",
"9  c #7F8282",
"0  c #7F8383",
"q  c #808282",
"w  c #808383",
"e  c #818383",
"r  c #828484",
"t  c #838585",
"y  c #848686",
"u  c #858787",
"i  c #868888",
"p  c #878989",
"a  c #888A8A",
"s  c #898B8B",
"d  c #8A8C8C",
"f  c #8B8D8D",
"g  c #8C8E8E",
"h  c #8E9090",
"j  c #8F9191",
"k  c #909292",
"l  c #929494",
"z  c #939595",
"x  c #949696",
"c  c #959797",
"v  c #969898",
"b  c #979898",
"n  c #979999",
"m  c #989A9A",
"M  c #999A9A",
"N  c #999B9B",
"B  c #9A9B9B",
"V  c #9B9D9D",
"C  c #9C9D9D",
"Z  c #9D9E9E",
"A  c #9E9F9F",
"S  c #9EA0A0",
"D  c #A0A2A2",
"F  c #A2A3A3",
"G  c #A3A4A4",
"H  c #A4A5A5",
"J  c #A4A6A6",
"K  c #A5A6A6",
"L  c #A5A7A7",
"P  c #A6A7A7",
"I  c #A8A9A9",
"U  c #A9AAAA",
"Y  c #AAABAB",
"T  c #ABACAC",
"R  c #ACADAD",
"E  c #ADAFAF",
"W  c #AEAFAF",
"Q  c #AFB0B0",
"!  c #B0B1B1",
"~  c #B1B2B2",
"^  c #B2B3B3",
"/  c #B3B4B4",
"(  c #B5B6B6",
")  c #B6B7B7",
"_  c #B7B8B8",
"`  c #B8B9B9",
"'  c #B9BABA",
"]  c #BABBBB",
"[  c #BBBCBC",
"{  c #BCBDBD",
"}  c #BDBEBE",
"|  c #BFC0C0",
" . c #C0C1C1",
".. c #C1C2C2",
"X. c #C3C4C4",
"o. c #C4C5C5",
"O. c #C5C6C6",
"+. c #C6C7C7",
"@. c #C7C8C8",
"#. c #C8C9C9",
"$. c #C9CACA",
"%. c #CACBCB",
"&. c #CBCCCC",
"*. c #CDCECE",
"=. c #CFD0D0",
"-. c #D0D1D1",
";. c #D1D2D2",
":. c #D3D4D4",
">. c #D4D5D5",
",. c #D5D5D5",
"<. c gray84",
"1. c #D7D7D7",
"2. c #D8D8D8",
"3. c #D8D9D9",
"4. c #DADBDB",
"5. c #DBDCDC",
"6. c #DCDDDD",
"7. c #DDDEDE",
"8. c #DFE0E0",
"9. c #E1E2E2",
"0. c #E2E2E2",
"q. c #E2E3E3",
"w. c gray89",
"e. c #E4E4E4",
"r. c #E6E6E6",
"t. c #E7E7E7",
"y. c gray91",
"u. c #E9E9E9",
"i. c #EAEAEA",
"p. c gray92",
"a. c gray93",
"s. c #EEEEEE",
"d. c #EFEFEF",
"f. c #F1F1F1",
"g. c gray95",
"h. c #F4F4F4",
"j. c gray96",
"k. c #F6F6F6",
"l. c #F7F8F8",
"z. c #F8F8F8",
"x. c #F9F9F9",
"c. c gray98",
"v. c #FBFBFB",
"b. c gray99",
"n. c #FCFDFD",
"m. c #FDFDFD",
"M. c #FDFEFE",
"N. c #FEFEFE",
"B. c gray100",
"V. c None",
/* pixels */
"V.V.V.V.V.V.V.V.V.V.V.V.V.V.V.V.V.V.V.V.V.V.V.V.V.V.V.V.V.V.V.V.V.V.V.V.V.V.V.V.V.V.V.V.V.V.V.V.V.V.V.V.V.V.V.V.V.V.V.V.V.V.V.V.",
"V.V.V.V.V.V.V.V.V.V.V.V.V.V.V.V.V.V.V.V.V.V.V.V.V.V.. * q q q q q q q q : o V.V.V.V.V.V.V.V.V.V.V.V.V.V.V.V.V.V.V.V.V.V.V.V.V.V.",
"V.V.V.V.V.V.V.V.V.V.V.V.V.V.V.V.V.V.V.V.V.V.. 7 q q q q 9 q q q q q q q q q q q q O V.V.V.V.V.V.V.V.V.V.V.V.V.V.V.V.V.V.V.V.V.V.",
"V.V.V.V.V.V.V.V.V.V.V.V.V.V.V.V.V.V.V.V.2 9 q q q q q q 2 * * * * * % : q q q q q q q 7 V.V.V.V.V.V.V.V.V.V.V.V.V.V.V.V.V.V.V.V.",
"V.V.V.V.V.V.V.V.V.V.V.V.V.V.V.V.V.V.7 q q q q q o V.V.V.V.V.V.V.V.V.V.V.V.V.V.  2 q q q q q . V.V.V.V.V.V.V.V.V.V.V.V.V.V.V.V.V.",
"V.V.V.V.V.V.V.V.V.V.V.V.V.V.V.V.7 q 9 q q * V.V.V.V.V.V.V.V.V.V.V.V.V.V.V.V.V.V.V.V.V.q q q q q V.V.V.V.V.V.V.V.V.V.V.V.V.V.V.V.",
"V.V.V.V.V.V.V.V.V.V.V.V.V.V.% q q q q . V.V.V.V.V.V.V.V.  * % * * * * @ V.V.V.V.V.V.V.V.V.7 q q q 2 V.V.V.V.V.V.V.V.V.V.V.V.V.V.",
"V.V.V.V.V.V.V.V.V.V.V.V.V.4 q q q % V.V.V.V.V.V., 0 q q q q q q q q q q q q 9 2 V.V.V.V.V.V.V.w q q 9 V.V.V.V.V.V.V.V.V.V.V.V.V.",
"V.V.V.V.V.V.V.V.V.V.V.V.9 q q 7 V.V.V.V.V.. q q q q q q q q q q q q q q q q q q q q * V.V.V.V.V.: q q w V.V.V.V.V.V.V.V.V.V.V.V.",
"V.V.V.V.V.V.V.V.V.V.V.q q q : V.V.V.V.V.q q q q q q q q q q q q q q q q q q q q q q q q - V.V.V.V.V.w q q . V.V.V.V.V.V.V.V.V.V.",
"V.V.V.V.V.V.V.V.V.V.q q 9 V.V.V.V.V.7 q q q q q q q q q q q q q q q q q q q q q q q q q q w V.V.V.V.V.w q q . V.V.V.V.V.V.V.V.V.",
"V.V.V.V.V.V.V.V.V.q q 9 V.V.V.V.@ q q q q q q q q q q q q q q q q q q q q q q q q q q q q q q : V.V.V.V.q q q V.V.V.V.V.V.V.V.V.",
"V.V.V.V.V.V.V.V.q q q V.V.V.V.: q q q q q q q q q q q q q q q w f 9 q q q q q q q q q q q q q q 7 V.V.V.V.9 q w V.V.V.V.V.V.V.V.",
"V.V.V.V.V.V.V.7 q q . V.V.V.7 q q q q q q q q q q q q q q q q $.u.a q q q q q q q q q q q q q q 9 q V.V.V.V.q q q V.V.V.V.V.V.V.",
"V.V.V.V.V.V.# q q ; V.V.V.7 q q q q q q q q q q q q q q q q  .B.B.9.t q q q q q q q q q q q q q q q q V.V.V.V.q q 2 V.V.V.V.V.V.",
"V.V.V.V.V.V.q 9 7 V.V.V.: q q q q q q q q q q q q q q q q / B.<.^ B.3.w q q q q q q q q q q q q q q 9 7 V.V.V., q 9 V.V.V.V.V.V.",
"V.V.V.V.V.3 q 9 V.V.V.V.q q q q q q q q q q q q q q q 9 I B.8.w q { B.-.q q q q q q q q q q q q q q q q : V.V.V.9 q w V.V.V.V.V.",
"V.V.V.V.V.q q % V.V.V.w q q q q q q q q q q q q q q q F B.e.a q q q @.B.O.q q q q q q q q q q q q q q q q V.V.V.V.q q * V.V.V.V.",
"V.V.V.V.7 q q V.V.V.7 q q q q q q q q q q q q q q q N j.s.f q q q q w -.B.' q q q q q q q q q q q q q q q 9 V.V.V.8 q q V.V.V.V.",
"V.V.V.V.9 q * V.V.V.9 q q q q q q q q q q q q q q l j.h.l q q q q q q t 3.B.W q q q q q q q q q q q q q q 9 2 V.V.V.q q o V.V.V.",
"V.V.V.2 q 9 V.V.V.9 q q q q q q q q q q q q q q f s.z.N q q q q q q q q p e.B.P q q q q q q q q q q q q q q q V.V.V.7 q w V.V.V.",
"V.V.V.q q : V.V.V.q q q q q q q q q q q q q q a e.B.F 9 q q q q q q q q q a u.z.C q q q q q q q q q q q q q 9 2 V.V.V.q q V.V.V.",
"V.V.V.q q V.V.V.7 q q q q q q q q q q q q q w 9.B.I q q q q q q q q q q q q g h.j.l q q q q q q q q q q q q q q V.V.V.q q : V.V.",
"V.V.2 q q V.V.V.q q q q q q q q q q q q q w <.B./ q q q q q q q q q q q q q q c j.h.k q q q q q q q q q q q q q V.V.V.: q q V.V.",
"V.V.q q : V.V.o 9 q q q q q q q q q q q q &.B.| q q q q q q q q q q q q q q q q C c.u.a q q q q q q q q q q q q 4 V.V.V.q q V.V.",
"V.V.q q V.V.V.7 q q q q q q q q q q q q  .B.$.q q q q q q q q q q q q q q q q q 9 P B.9.t q q q q q q q q q q q 9 V.V.V.q q V.V.",
"V.V.q q V.V.V.q q q q q q q q q q q q ) B.<.w q q q q q q q q q q q q q q q q q q q ^ B.7.q q q q q q q q q q q q V.V.V.q q * V.",
"V.* q q V.V.V.q q q q q q q q q q q T B.7.t q q q q q q q q q q q q q q q q q q q 9 9 ' B.-.w q q q q q q q q q q . V.V.2 q q V.",
"V.* q q V.V.V.q q q q q q q q q q F B.e.p q q q q q q q q q q q q q q 9 q 9 q q q q q q O.B.O.q q q q q q q q q q * V.V.* q q V.",
"V.w q 2 V.V.@ q q q q q q q q q N z.z.G n N n N n N n N n N n N N n N N N N n N n N N n N 9.B.' q q q q q q q q q 7 V.V.. q q V.",
"V.q q * V.V.* q q q q q q q q l j.B.B.B.B.B.B.B.B.B.B.B.B.B.B.B.B.B.B.B.B.B.B.B.B.B.B.B.B.B.B.B.Q q q q q q q q q q V.V.V.q q V.",
"V.q q - V.V.* q q q q q q q q B I I I I I I I I I I I I I I I I I P I I I I I I I I I I I I I I P q q q q q q q q q V.V.V.q q V.",
"V.q q * V.V.* q q q q q q q q C I I I I I I I I I I I I I I I n h ^ ^ W ^ W ^ W ^ W ^ W ^ W ^ Q W q q q q q q q q q V.V.V.q q V.",
"V.q q * V.V.* q q q q q q q q N z.B.B.B.B.B.B.B.B.B.B.B.B.B.B.$.P B.B.B.B.B.B.B.B.B.B.B.B.B.B.B.T q q q q q q q q q V.V.V.q q V.",
"V.q q 2 V.V.o q q q q q q q q q P B.s.C n N N N N n N n n N z.$.I B.P k k k k k k k k h k 3.B.[ q q q q q q q q q 7 V.V.. q q V.",
"V.* q q V.V.V.q q q q q q q q q q ^ B.-.q 9 q q q q q q q 9 l.@.I B.N 9 q q q q q q q 9 { B.$.q q q q q q q q q q * V.V.* q q V.",
"V.* q q V.V.V.q q q q q q q q q q q  .B.O.q q q q q q q q q l.$.I B.N q q q q q q q q W B.2.w q q q q q q q q q q   V.V.2 q q V.",
"V.V.q q V.V.V.9 q q q q q q q q q q q -.B.) q q q q q q q q l.$.I B.n q q q q q q q F B.e.p q q q q q q q q q q q V.V.V.q q * V.",
"V.V.q q V.V.V.7 q q q q q q q q q q q t 7.B.I q q q q q q q j.$.I B.n q q q q q q c z.s.f q q q q q q q q q q q 9 V.V.V.q q V.V.",
"V.V.q q , V.V.@ q q q q q q q q q q q q a u.z.C q q q q q q l.@.I B.N q q q q q g h.j.l q q q q q q q q q q q q 4 V.V.V.q q V.V.",
"V.V.2 q q V.V.V.q q q q q q q q q q q q q h h.j.k q q q q q l.$.I B.N 9 q q q a y.z.C w q q q q q q q q q q q q V.V.V.: q q V.V.",
"V.V.V.q q V.V.V.7 q q q q q q q q q q q q q N j.s.f q q q q l.@.I B.N q q q t 7.B.I q q q q q q q q q q q q q 9 V.V.V.9 q : V.V.",
"V.V.V.9 q , V.V.V.q q q q q q q q q q q q q q F B.9.p q q q l.$.P B.n q q q *.B.' q q q q q q q q q q q q q q 2 V.V.V.q q V.V.V.",
"V.V.V.2 q 9 V.V.V.9 q q q q q q q q q q q q q q Q B.<.w q q l.$.I B.N q q  .B.$.q q q q q q q q q q q q q q q V.V.V.7 9 q V.V.V.",
"V.V.V.V.q q * V.V.V.q q q q q q q q q q q q q q q { B.$.q q l.$.I B.N 9 ^ B.<.w q q q q q q q q q q q q q q 2 V.V.V.q q @ V.V.V.",
"V.V.V.V.7 9 q V.V.V.7 9 q q q q q q q q q q q q q q *.B.' 9 l.@.I B.N P c.9.t q q q q q q q q q q q q q q 9 V.V.V.8 q q V.V.V.V.",
"V.V.V.V.V.9 q % V.V.V.q q q q q q q q q q q q q q q w 3.B.T j.$.I B.^ z.p.a q q q q q q q q q q q q q q q V.V.V.V.q q * V.V.V.V.",
"V.V.V.V.V.2 q 9 V.V.V.V.q q q q q q q q q q q q q q q p e.B.B.@.I B.z.j.k q q q q q q q q q q q q q q q : V.V.V.9 q q V.V.V.V.V.",
"V.V.V.V.V.V.q q 7 V.V.V., 9 q q q q q q q q q q q q q q g d.B.$.I B.z.N q q q q q q q q q q q q q q q 7 V.V.V., q q V.V.V.V.V.V.",
"V.V.V.V.V.V.# q q ; V.V.V.7 q q q q q q q q q q q q q q q c j.$.I B.P q q q q q q q q q q q q q q q q V.V.V.V.q 9 2 V.V.V.V.V.V.",
"V.V.V.V.V.V.V.7 q q . V.V.V.7 q q q q q q q q q q q q q q q C O.I ^ q q q q q q q q q q q q q q q q V.V.V.V.q q q V.V.V.V.V.V.V.",
"V.V.V.V.V.V.V.V.q q q V.V.V.V.: q q q q q q q q q q q q q q q p t 9 q q q q q q q q q q q q q q 7 V.V.V.V.q q w V.V.V.V.V.V.V.V.",
"V.V.V.V.V.V.V.V.V.q q 9 V.V.V.V.@ 9 q q q q q q q q q q q q q q q q q q q q q q q q q q q q q : V.V.V.V.q q q V.V.V.V.V.V.V.V.V.",
"V.V.V.V.V.V.V.V.V.V.q q 9 V.V.V.V.V.4 q q q q q q q q q q q q q q q q q q q q q q q q q q w V.V.V.V.V.w q q . V.V.V.V.V.V.V.V.V.",
"V.V.V.V.V.V.V.V.V.V.V.q q q : V.V.V.V.V.q q q q q q q q q q q q q q q q q q q q q q q q % V.V.V.V.V.w q q . V.V.V.V.V.V.V.V.V.V.",
"V.V.V.V.V.V.V.V.V.V.V.V.9 q q 7 V.V.V.V.V.. q q q q q q q q q q q q q q q q q q q q % V.V.V.V.V.; q q w V.V.V.V.V.V.V.V.V.V.V.V.",
"V.V.V.V.V.V.V.V.V.V.V.V.V.4 q q q % V.V.V.V.V.V., 9 q q q q q q q q q q q q q 2 V.V.V.V.V.V.V.w q 9 9 V.V.V.V.V.V.V.V.V.V.V.V.V.",
"V.V.V.V.V.V.V.V.V.V.V.V.V.V.% q q q q . V.V.V.V.V.V.V.V.  * % * * * * @ V.V.V.V.V.V.V.V.V.7 q q q 2 V.V.V.V.V.V.V.V.V.V.V.V.V.V.",
"V.V.V.V.V.V.V.V.V.V.V.V.V.V.V.V.7 9 q q q * V.V.V.V.V.V.V.V.V.V.V.V.V.V.V.V.V.V.V.V.V.q q q q q V.V.V.V.V.V.V.V.V.V.V.V.V.V.V.V.",
"V.V.V.V.V.V.V.V.V.V.V.V.V.V.V.V.V.V.7 q q q q q O V.V.V.V.V.V.V.V.V.V.V.V.V.V.  7 9 q 9 q q . V.V.V.V.V.V.V.V.V.V.V.V.V.V.V.V.V.",
"V.V.V.V.V.V.V.V.V.V.V.V.V.V.V.V.V.V.V.V.2 q q q q q q q 2 % * * * * * : q 9 q q q q q 7 V.V.V.V.V.V.V.V.V.V.V.V.V.V.V.V.V.V.V.V.",
"V.V.V.V.V.V.V.V.V.V.V.V.V.V.V.V.V.V.V.V.V.V.. 7 q q q q q q q q q q q q q q q q q O V.V.V.V.V.V.V.V.V.V.V.V.V.V.V.V.V.V.V.V.V.V.",
"V.V.V.V.V.V.V.V.V.V.V.V.V.V.V.V.V.V.V.V.V.V.V.V.V.V.  * q q q q q q q q : O V.V.V.V.V.V.V.V.V.V.V.V.V.V.V.V.V.V.V.V.V.V.V.V.V.V.",
"V.V.V.V.V.V.V.V.V.V.V.V.V.V.V.V.V.V.V.V.V.V.V.V.V.V.V.V.V.V.V.V.V.V.V.V.V.V.V.V.V.V.V.V.V.V.V.V.V.V.V.V.V.V.V.V.V.V.V.V.V.V.V.V."
};
