/* XPM */
static char *d6558f4529ba4b319c0a83e6800e82cf[] = {
/* columns rows colors chars-per-pixel */
"128 128 84 1 ",
"  c #404242",
". c #606161",
"X c gray38",
"o c #606262",
"O c #616262",
"+ c #616363",
"@ c #7F8181",
"# c #7F8282",
"$ c #7F8383",
"% c #7F8484",
"& c #808181",
"* c #808282",
"= c #808383",
"- c #808484",
"; c #828484",
": c #848686",
"> c #868888",
", c #888A8A",
"< c #8A8C8C",
"1 c #8C8E8E",
"2 c #8E9090",
"3 c #909292",
"4 c #929494",
"5 c #949696",
"6 c #969898",
"7 c #989A9A",
"8 c #9A9C9C",
"9 c #9C9E9E",
"0 c #9EA0A0",
"q c #A0A2A2",
"w c #A2A4A4",
"e c #A4A5A5",
"r c #A4A6A6",
"t c #A6A7A7",
"y c #A6A8A8",
"u c #A8A9A9",
"i c #AAABAB",
"p c #ACADAD",
"a c #AEAFAF",
"s c #B0B1B1",
"d c #B2B3B3",
"f c #B4B5B5",
"g c #B6B7B7",
"h c #B8B9B9",
"j c #BABBBB",
"k c #BCBDBD",
"l c #BEBFBF",
"z c #C0C1C1",
"x c #C2C3C3",
"c c #C4C5C5",
"v c #C6C7C7",
"b c #C8C9C9",
"n c #CACBCB",
"m c #CCCDCD",
"M c #CECFCF",
"N c #D0D0D0",
"B c #D0D1D1",
"V c #D2D3D3",
"C c #D4D5D5",
"Z c #D6D7D7",
"A c #D8D8D8",
"S c #DADADA",
"D c gainsboro",
"F c gray87",
"G c gray88",
"H c #E2E2E2",
"J c #E4E4E4",
"K c #E6E6E6",
"L c gray91",
"P c #EAEAEA",
"I c #ECECEC",
"U c #EEEEEE",
"Y c #EFF0F0",
"T c gray94",
"R c #F1F2F2",
"E c #F3F4F4",
"W c #F5F6F6",
"Q c #F7F8F8",
"! c #F9F9F9",
"~ c #F9FAFA",
"^ c #FBFBFB",
"/ c #FDFDFD",
"( c gray100",
") c None",
/* pixels */
"))))))))))))))))))))))))))))))))))))))))))))))))))))))))))))))))))))))))))))))))))))))))))))))))))))))))))))))))))))))))))))))))",
"))))))))))))))))))))))))))))))))))))))))))))))))))))))))))))))))))))))))))))))))))))))))))))))))))))))))))))))))))))))))))))))))",
"))))))))))))))))))))))))))))))))))))))))))))))))))))))))#***************+)))))))))))))))))))))))))))))))))))))))))))))))))))))))",
"))))))))))))))))))))))))))))))))))))))))))))))))))+#********************#***-#))))))))))))))))))))))))))))))))))))))))))))))))))",
"))))))))))))))))))))))))))))))))))))))))))))))+#**********************************))))))))))))))))))))))))))))))))))))))))))))))",
")))))))))))))))))))))))))))))))))))))))))))+****************************************#)))))))))))))))))))))))))))))))))))))))))))",
")))))))))))))))))))))))))))))))))))))))))#*****************************#***************+))))))))))))))))))))))))))))))))))))))))",
"))))))))))))))))))))))))))))))))))))))+****************##))))))))))))))+#****************%))))))))))))))))))))))))))))))))))))))",
"))))))))))))))))))))))))))))))))))))+#*************+)))))))))))))))))))))))))-**************))))))))))))))))))))))))))))))))))))",
"))))))))))))))))))))))))))))))))))+#***********#)))))))))))))))))))))))))))))))))%***********#))))))))))))))))))))))))))))))))))",
")))))))))))))))))))))))))))))))))***********#)))))))))))))))))))))))))))))))))))))))#**********#))))))))))))))))))))))))))))))))",
")))))))))))))))))))))))))))))))***********))))))))))))))))))))))))))))))))))))))))))))#*********-)))))))))))))))))))))))))))))))",
"))))))))))))))))))))))))))))))*********-)))))))))))))))))))))      )))))))))))))))))))))+*********%)))))))))))))))))))))))))))))",
"))))))))))))))))))))))))))))**********))))))))))))))))#******************#+)))))))))))))))+*********))))))))))))))))))))))))))))",
")))))))))))))))))))))))))))*********))))))))))))))%***************************#)))))))))))))+#*******#))))))))))))))))))))))))))",
")))))))))))))))))))))))))+********)))))))))))))*********************************-*))))))))))))#********)))))))))))))))))))))))))",
"))))))))))))))))))))))))#********)))))))))))#***************************************))))))))))))-******-))))))))))))))))))))))))",
")))))))))))))))))))))))********)))))))))))-*******************************************+))))))))))********)))))))))))))))))))))))",
"))))))))))))))))))))))********))))))))))**********************************************#*+)))))))))+#******))))))))))))))))))))))",
")))))))))))))))))))))*******#)))))))))#***************************************************))))))))))******#+))))))))))))))))))))",
"))))))))))))))))))))******#+))))))))+*******************************************************)))))))))*******+)))))))))))))))))))",
")))))))))))))))))))*******)))))))))**********************************************************+))))))))*******+))))))))))))))))))",
"))))))))))))))))))*******)))))))))************************************************************#))))))))#******))))))))))))))))))",
")))))))))))))))))#******))))))))#***************************************************************))))))))#******)))))))))))))))))",
"))))))))))))))))*******))))))))**********************************#*******************************))))))))#******))))))))))))))))",
"))))))))))))))))******))))))))*********************************,i#********************************+)))))))#******)))))))))))))))",
")))))))))))))))******))))))))-*********************************C(i*********************************#)))))))******#))))))))))))))",
"))))))))))))))*****#+)))))))**********************************M(((9*********************************#)))))))******))))))))))))))",
")))))))))))))#******)))))))-*********************************c((((!7*********************************#)))))))******)))))))))))))",
")))))))))))))******)))))))**********************************j((((((R5*********************************+)))))))******))))))))))))",
"))))))))))))*****#)))))))*********************************#i(((Hw!((I<********************************#)))))))#*****+)))))))))))",
")))))))))))#*****+))))))#********************************#q(((I<*i(((P>*********************************)))))))******)))))))))))",
")))))))))))*****-))))))+#********************************0!((E1***s(((H>*********************************)))))))*****#))))))))))",
"))))))))))******)))))))*********************************5W((W5*****k(((C-*********************************))))))#*****))))))))))",
"))))))))))*****+))))))*********************************1R((!0*******b(((M*********************************+))))))-*****)))))))))",
")))))))))******))))))*********************************,I(((r*********C(((x********************************#)))))))*****)))))))))",
")))))))))*****)))))))*******************************#>H(((a**********-D(((j#********************************))))))******))))))))",
"))))))))******))))))*********************************S(((g************>H((^i********************************+))))))*****))))))))",
"))))))))*****))))))#********************************B(((c**************1I(((w********************************))))))******)))))))",
")))))))******))))))********************************c(((B****************2R((!8*******************************#))))))*****)))))))",
")))))))*****))))))#*******************************j(((S******************5W((E5*******************************))))))*****%))))))",
"))))))-****#))))))*******************************i(((H>*******************9!((I1******************************#))))))*****))))))",
"))))))*****+)))))#******************************r(((P,********************#i(((P,******************************))))))*****+)))))",
"))))))*****))))))******************************0!((R1*********************#*s(((H>*****************************#)))))*****#)))))",
")))))#****-)))))+#****************************5W((R5************************#j(((C******************************))))))*****)))))",
")))))*****))))))*****************************1E((!0***************************b(((N*****************************))))))*****+))))",
")))))*****))))))****************************<I(((q*****************************B(((x****************************#)))))+*****))))",
"))))#*****)))))****************************>H(((i******************************-S(((j****************************))))))*****))))",
"))))*****))))))***************************-S(((j#*******************************>H(((i***************************))))))*****))))",
"))))*****))))))***************************B(((c**********************************,I(((w**************************#)))))#****-)))",
"))))*****)))))+**************************b(((B************************************1W((!8**************************))))))*****)))",
")))+****#)))))#*************************j(((C-*************************************5W((E5*************************))))))*****)))",
")))#****))))))*************************a(((H>***************************************9!((R1************************+)))))*****)))",
")))*****))))))************************y(((I>*****************************************r(((I>#**********************#)))))*****)))",
")))*****))))))***********************0!((I1*******************************************i(((H>**********************-)))))#****#))",
")))*****)))))***********************5Q((R5********************************************#j(((S-**********************))))))****#))",
")))*****)))))#*********************2R((!8***********************************************c(((B**********************))))))*****))",
")))****#)))))*********************1I(((0*************************************************B(((c*#*******************))))))*****))",
"))******)))))********************>H(((i**************************************************-A(((j#*******************+)))))*****))",
"))***** )))))*******************-D(((Hssssssssssssssssssssssssssssssssssssssssssssssssssssg!(((i********************)))))*****))",
"))*****))))))*******************C(((((((((((((((((((((((((((((((((((((((((((((((((((((((((((((((r*******************)))))*****))",
"))*****))))))******************b((((((((((((((((((((((((((((((((((((((((((((((((((((((((((((((((!0******************)))))*****))",
"))*****))))))*****************6BBNNNNNNNBNNNNNNNNNNNNNNNNNNNNNNNNNNNNNNNNNNNNNBNNNNNNNNNNNBNNNBBBc******************)))))*****))",
"))#****))))))*******************************************************************************************************)))))*****))",
"))*****))))))*******************************************************************************************************)))))*****))",
"))*****))))))*****************yBNNNNNNBBNNNNNNBBNNNNNNNNNNNNNNB<*kGGGGGGGGGGGGGGGGGGGGGGGGGGHDHDHC-*****************)))))*****))",
"))*****))))))*****************-D(((((((((((((((((((((((((((((((3*N((((((((((((((((((((((((((((((!5******************)))))*****))",
"))*****))))))******************>L((((((((((((((((((((((((((((((3*N((((((((((((((((((((((((((((((q*******************)))))*****))",
"))***** )))))*******************1R(((cssssssssssssssssssssssW((3*N((cqqqqqqqqqqqqqqqqqqqqqqR(((a********************)))))*****))",
"))******)))))********************5!((E1*********************Y((3*N((s*********************M(((k********************+)))))*****))",
")))****#)))))*********************0(((P,********************Y((3*N((s********************x(((M*********************))))))*****))",
")))*****)))))#*********************i(((D********************Y((3*N((s*******************s(((S**********************))))))*****))",
")))*****)))))***********************k(((B*******************Y((3*N((s******************r(((K>**********************))))))****#))",
")))*****))))))***********************b(((x******************Y((3*N((s*****************7!((I1***********************)))))******))",
")))*****))))))***********************-S(((s*****************Y((3*N((s****************2W((W5***********************#)))))*****)))",
")))#****))))))************************>H(((y****************Y((3*N((s***************>I((!9************************+)))))*****)))",
")))+*****)))))*************************1I((!7***************Y((3*N((s**************-H(((i*************************))))))*****)))",
"))))*****)))))+*************************5W((W3**************Y((3*N((s**************C(((j**************************))))))*****)))",
"))))*****))))))**************************9!((I>*************Y((3*N((s*************c(((b**************************#)))))#*****)))",
"))))*****))))))*************************##i(((H>************Y((3*N((s************g(((C-**************************))))))-****))))",
"))))#****#)))))-***************************j(((C************Y((3*N((s***********i(((H>***************************))))))*****))))",
")))))*****))))))****************************c(((c***********Y((3*N((s**********9!((P<***************************#)))))+#****))))",
")))))*****))))))#****************************C(((g**********Y((3*N((s*********5R((R5****************************))))))*****+))))",
")))))#****#)))))+****************************>H(((i*********Y((3*N((s********1I((!9*****************************))))))*****)))))",
"))))))*****))))))*****************************<I((!0********R((3*N((s*******>H(((i*****************************#)))))******)))))",
"))))))-****+)))))#*****************************3E((E5*******Y((3*N((s******-C(((s******************************))))))****#+)))))",
"))))))******))))))******************************7!((I1******Y((3*N((s******b(((c******************************#))))))*****))))))",
")))))))*****))))))#*****************************#r(((K>*****Y((3*N((s*****j(((C*******************************))))))*****#))))))",
")))))))******))))))*******************************s(((S*****Y((3*N((s****i(((H*******************************#))))))*****)))))))",
"))))))))*****))))))%*******************************c(((b****Y((3*N((s***9^((I>*******************************))))))******)))))))",
"))))))))******))))))********************************B(((k***Y((3*N((s*#5W((E2*******************************+))))))*****))))))))",
")))))))))*****)))))))*******************************-H(((a**Y((3*N((s*1R((!7********************************))))))******))))))))",
")))))))))******))))))********************************>P(((9#Y((3*N((s>K(((w********************************)))))))*****)))))))))",
"))))))))))****#+))))))********************************1E((W5Y((3*N((sS(((s********************************+))))))******)))))))))",
"))))))))))******)))))))********************************6!((RW((3*N((R(((l*********************************))))))#*****))))))))))",
")))))))))))******))))))+********************************0((((((3*N(((((B********************************-)))))))*****%))))))))))",
")))))))))))#*****+))))))#********************************a(((((3*N((((D-********************************)))))))*****#)))))))))))",
"))))))))))))******)))))))*********************************k((((3*B(((P>********************************)))))))#*****+)))))))))))",
")))))))))))))******)))))))*********************************N(((3*N((R1********************************+)))))))******))))))))))))",
")))))))))))))#******)))))))*********************************S((3*N(W5********************************#)))))))******)))))))))))))",
"))))))))))))))******+)))))))-*******************************>K(3*N(9********************************#)))))))******))))))))))))))",
")))))))))))))))******))))))))********************************1T3*Na********************************#)))))))******#))))))))))))))",
"))))))))))))))))******))))))))********************************5,*3##******************************+)))))))#******)))))))))))))))",
"))))))))))))))))*******))))))))-*****************************************************************))))))))#******))))))))))))))))",
")))))))))))))))))#******))))))))%***************************************************************))))))))#******)))))))))))))))))",
"))))))))))))))))))*******)))))))))************************************************************#))))))))#******))))))))))))))))))",
")))))))))))))))))))*******)))))))))**********************************************************+))))))))-*****#+))))))))))))))))))",
"))))))))))))))))))))*******+))))))))+#******************************************************)))))))))*******+)))))))))))))))))))",
")))))))))))))))))))))*******#)))))))))#***************************************************))))))))))*******+))))))))))))))))))))",
"))))))))))))))))))))))********))))))))))************************************************+)))))))))+*******))))))))))))))))))))))",
")))))))))))))))))))))))********)))))))))))-*******************************************+))))))))))-*******)))))))))))))))))))))))",
"))))))))))))))))))))))))#********)))))))))))#***************************************))))))))))))********))))))))))))))))))))))))",
")))))))))))))))))))))))))+********)))))))))))))**********************************-))))))))))))#********)))))))))))))))))))))))))",
")))))))))))))))))))))))))))*********))))))))))))))%****************************)))))))))))))+********#))))))))))))))))))))))))))",
"))))))))))))))))))))))))))))**********))))))))))))))))#*******************+)))))))))))))))+#*******-))))))))))))))))))))))))))))",
"))))))))))))))))))))))))))))))*********-)))))))))))))))))))))      )))))))))))))))))))))+*********#)))))))))))))))))))))))))))))",
")))))))))))))))))))))))))))))))***********))))))))))))))))))))))))))))))))))))))))))))#*#********)))))))))))))))))))))))))))))))",
")))))))))))))))))))))))))))))))))***********#)))))))))))))))))))))))))))))))))))))))***********#))))))))))))))))))))))))))))))))",
"))))))))))))))))))))))))))))))))))+************#)))))))))))))))))))))))))))))))))%***********#))))))))))))))))))))))))))))))))))",
"))))))))))))))))))))))))))))))))))))+**************+)))))))))))))))))))))))))***************))))))))))))))))))))))))))))))))))))",
"))))))))))))))))))))))))))))))))))))))+#***************##))))))))))))))+#****************%))))))))))))))))))))))))))))))))))))))",
")))))))))))))))))))))))))))))))))))))))))#********************************************#+))))))))))))))))))))))))))))))))))))))))",
")))))))))))))))))))))))))))))))))))))))))))+**#*************************************#)))))))))))))))))))))))))))))))))))))))))))",
"))))))))))))))))))))))))))))))))))))))))))))))+#*********************************-))))))))))))))))))))))))))))))))))))))))))))))",
"))))))))))))))))))))))))))))))))))))))))))))))))))+#************************-%))))))))))))))))))))))))))))))))))))))))))))))))))",
"))))))))))))))))))))))))))))))))))))))))))))))))))))))))#***************+)))))))))))))))))))))))))))))))))))))))))))))))))))))))",
"))))))))))))))))))))))))))))))))))))))))))))))))))))))))))))))))))))))))))))))))))))))))))))))))))))))))))))))))))))))))))))))))",
"))))))))))))))))))))))))))))))))))))))))))))))))))))))))))))))))))))))))))))))))))))))))))))))))))))))))))))))))))))))))))))))))"
};
