/* XPM */
static char *_2f80bd800d84eefe809ac3ffeaa4de8[] = {
/* columns rows colors chars-per-pixel */
"16 16 51 1 ",
"  c #4A4C4C",
". c #4E5050",
"X c #4F5050",
"o c #505252",
"O c #525454",
"+ c #555757",
"@ c #565858",
"# c #595A5A",
"$ c #5A5B5B",
"% c #595C5C",
"& c #5F6161",
"* c #606161",
"= c #616262",
"- c #767878",
"; c #777878",
": c #787A7A",
"> c #7A7C7C",
", c #808282",
"< c #838585",
"1 c #848686",
"2 c #868888",
"3 c #8E9090",
"4 c #929393",
"5 c #939595",
"6 c #949696",
"7 c #959797",
"8 c #9A9C9C",
"9 c #9B9C9C",
"0 c #9EA0A0",
"q c #A0A2A2",
"w c #A1A3A3",
"e c #A3A4A4",
"r c #A4A5A5",
"t c #A6A8A8",
"y c #A7A8A8",
"u c #A8A9A9",
"i c #A8AAAA",
"p c #A9AAAA",
"a c #ADAEAE",
"s c #AFB0B0",
"d c #B0B1B1",
"f c #B0B2B2",
"g c #B1B2B2",
"h c #B5B6B6",
"j c #BEBFBF",
"k c #C1C1C1",
"l c #C9CACA",
"z c #CCCDCD",
"x c #CDCDCD",
"c c #CECFCF",
"v c None",
/* pixels */
"vvvvvvo$$ovvvvvv",
"vvvv&vvvvvv&vvvv",
"vvv v;,,,,:vvvvv",
"vv X,,,wi,,,@vvv",
"v=v,,,9iww,,,v=v",
"vv;,,6s,,i9,,>vv",
"Xv,,3h,,,,g5,,v+",
"$v,<zggsgggz2,v$",
"$v,1zsgkjsgz2,v$",
"Xv,,4g,gg,a6,,v@",
"vv;,,9yasy9,,>vv",
"v=v,,,yzly,,,v=v",
"vv X,,,it,,,@vvv",
"vvv v;,,,,:vvvvv",
"vvvv&vvvvvv&vvvv",
"vvvvvvo$$Ovvvvvv"
};
