/* XPM */
static char *_804dd5aece345cfd96d297c941e8bb1[] = {
/* columns rows colors chars-per-pixel */
"32 32 127 2 ",
"   c #404242",
".  c #474949",
"X  c #4C4E4E",
"o  c #4D4F4F",
"O  c #4E5050",
"+  c #4F5151",
"@  c #505151",
"#  c #505252",
"$  c #515353",
"%  c #525353",
"&  c #585959",
"*  c #585A5A",
"=  c #585B5B",
"-  c #5A5C5C",
";  c #5B5C5C",
":  c #5B5E5E",
">  c #5C5D5D",
",  c #5D5E5E",
"<  c #5F6060",
"1  c #606262",
"2  c #616262",
"3  c #626363",
"4  c #666767",
"5  c #666868",
"6  c #676868",
"7  c #686A6A",
"8  c #6C6E6E",
"9  c #6C6F6F",
"0  c #6E6F6F",
"q  c #6E7070",
"w  c #6F7272",
"e  c #707171",
"r  c #707272",
"t  c #717272",
"y  c #707373",
"u  c #727474",
"i  c #737474",
"p  c #747676",
"a  c #767878",
"s  c #787A7A",
"d  c #797C7C",
"f  c #7A7C7C",
"g  c #7C7E7E",
"h  c #7E7F7F",
"j  c #7E8080",
"k  c #7F8282",
"l  c #7F8383",
"z  c #808282",
"x  c #808383",
"c  c #818383",
"v  c #828484",
"b  c #838585",
"n  c #848686",
"m  c #858787",
"M  c #878989",
"N  c #888989",
"B  c #888A8A",
"V  c #898B8B",
"C  c #8B8D8D",
"Z  c #8C8E8E",
"A  c #8D8F8F",
"S  c #8E9090",
"D  c #8F9191",
"F  c #909191",
"G  c #919292",
"H  c #919393",
"J  c #939595",
"K  c #949595",
"L  c #959797",
"P  c #969898",
"I  c #979898",
"U  c #989999",
"Y  c #989A9A",
"T  c #999A9A",
"R  c #9A9C9C",
"E  c #9B9C9C",
"W  c #9D9F9F",
"Q  c #9FA1A1",
"!  c #A1A3A3",
"~  c #A3A4A4",
"^  c #A4A5A5",
"/  c #A5A7A7",
"(  c #ACAEAE",
")  c #ADAEAE",
"_  c #AEAFAF",
"`  c #AFB0B0",
"'  c #B0B1B1",
"]  c #B3B4B4",
"[  c #B5B6B6",
"{  c #B7B8B8",
"}  c #B8B9B9",
"|  c #BABBBB",
" . c #BFC0C0",
".. c #C0C1C1",
"X. c #C1C2C2",
"o. c #C2C3C3",
"O. c #C3C4C4",
"+. c #C5C6C6",
"@. c #C9CACA",
"#. c #CBCCCC",
"$. c #CDCECE",
"%. c #CECFCF",
"&. c #D0D1D1",
"*. c #D1D2D2",
"=. c #D2D3D3",
"-. c #D3D4D4",
";. c gray83",
":. c #D4D5D5",
">. c #D7D8D8",
",. c #D8D8D8",
"<. c #DBDCDC",
"1. c #DCDDDD",
"2. c #DDDEDE",
"3. c gray87",
"4. c #DFE0E0",
"5. c gray88",
"6. c #E0E1E1",
"7. c #E1E2E2",
"8. c #E2E3E3",
"9. c gray89",
"0. c #E3E4E4",
"q. c #E4E4E4",
"w. c #E4E5E5",
"e. c gray90",
"r. c #E5E6E6",
"t. c #E6E7E7",
"y. c None",
/* pixels */
"y.y.y.y.y.y.y.y.y.y.y.y.y.y.y.y.  y.y.y.y.y.y.y.y.y.y.y.y.y.y.y.",
"y.y.y.y.y.y.y.y.y.y.y.y z z y t t y z v a o y.y.y.y.y.y.y.y.y.y.",
"y.y.y.y.y.y.y.y.% g s o y.y.y.y.y.y.y.y.y.p z & y.y.y.y.y.y.y.y.",
"y.y.y.y.y.y.y.s s y.y.y.y.: 9 t t q > y.y.y.y.y g y.y.y.y.y.y.y.",
"y.y.y.y.y.y.z > y.y.& k z z z z z z z z z 2 y.y.% k y.y.y.y.y.y.",
"y.y.y.y.y.k y.y.y.k z z z z z z z z z z z z v O y.y.z y.y.y.y.y.",
"y.y.y.y.k y.y.: z z z z z z z J Q k z z z z z z 5 y.y.k y.y.y.y.",
"y.y.y.a > y.: z z z z z z z Z e.e.Y z z z z z z z 5 y.% g y.y.y.",
"y.y.o s y.y.z z z z z z z B 9.E S e.H k z z z z z z O y.t < y.y.",
"y.y.k y.y.g z z z z z z m 3.~ z z L e.C z z z z z z k y.y.k y.y.",
"y.y.s y.& z z z z z z v >.) z z z z W 9.B z z z z z z 7 y.t % y.",
"y.q O y.k z z z z z z %.{ z z z z z k / 1.m z z z z z z y.y.f y.",
"y.z y.y.z z z z z z O.o.z z z z z z z z ' ;.v z z z z z y.y.z y.",
"y.z y.% z z z z z | %.z z z z z z z z z z | #.z z z z z 2 y.g y.",
"y.g y.5 z z z z ) 4.S Z Z Z Z Z Z Z Z Z Z Z &.o.z z z z a y.9 . ",
"y.y y.y z z z C *.;.;.;.;.;.;.;.;.;.;.;.;.;.*.;.L z z z z y.< % ",
"y.q y.t z z z S ;.;.;.;.;.;.*.o.| >.,.,.,.,.,.,.T k z z z y.2 % ",
"y.g y.7 z z z z [ ;.Z Z Z Z Z 9.;.L B B B B @.o.z z z z p y.8 . ",
"y.v y.% z z z z z +.o.k z z z 5.;.Z z z k ' *.z z z z z 2 y.f y.",
"y.k y.y.z z z z z v *.' z z z 5.;.Z z z / 3.v z z z z z y.y.z y.",
"y.q O y.g z z z z z m 3.! z z 3.;.Z k T 9.M z z z z z z y.y.f y.",
"y.y.f y.& k z z z z k B 9.Y z 9.;.Z H e.S z z z z z z 7 y.y % y.",
"y.y.k y.y.k z z z z z z H e.S 3.;.Y 9.Y z z z z z z k y.y.k y.y.",
"y.y.o s y.y.z z z z z z z T 9.9.;.e.! k z z z z z z O y.t 2 y.y.",
"y.y.y.a > y.: k z z z z z z / 9.;.) z z z z z k z 5 y.O g y.y.y.",
"y.y.y.y.z y.y.: z k z z z z z T T z z z z z z k 5 y.y.k y.y.y.y.",
"y.y.y.y.y.k y.y.y.k z z z z z z k z z z z z v % y.y.k y.y.y.y.y.",
"y.y.y.y.y.y.z > y.y.& k z z z z z z z z z 2 y.y.% k y.y.y.y.y.y.",
"y.y.y.y.y.y.y.s s y.y.y.y.& 9 t t q : y.y.y.y.y g y.y.y.y.y.y.y.",
"y.y.y.y.y.y.y.y.% k s o y.y.y.y.y.y.y.y.y.p z & y.y.y.y.y.y.y.y.",
"y.y.y.y.y.y.y.y.y.y.y.y z z p t t y z z a o y.y.y.y.y.y.y.y.y.y.",
"y.y.y.y.y.y.y.y.y.y.y.y.y.y.y.y.  y.y.y.y.y.y.y.y.y.y.y.y.y.y.y."
};
